<?xml version="1.0" encoding="utf-8"?>
<!-- Generator: Adobe Illustrator 21.0.1, SVG Export Plug-In . SVG Version: 6.00 Build 0)  -->
<svg version="1.1" id="Layer_1" xmlns="http://www.w3.org/2000/svg" xmlns:xlink="http://www.w3.org/1999/xlink" x="0px" y="0px"
	 viewBox="0 0 512 512" style="enable-background:new 0 0 512 512;" xml:space="preserve">
<style type="text/css">
	.st0{fill:#F39A00;}
	.st1{fill:#FDF1C1;}
	.st2{fill:#333333;}
	.st3{fill:#676764;}
	.st4{fill:none;stroke:#676764;stroke-width:6;stroke-miterlimit:10;}
	.st5{opacity:0.2;enable-background:new    ;}
	.st6{fill:#EBE3C5;}
	.st7{fill:#EBE3C5;enable-background:new    ;}
	.st8{opacity:0.1;enable-background:new    ;}
</style>
<g id="Layer_1_1_">
	<circle class="st0" cx="249.8" cy="256" r="243"/>
</g>
<g id="Layer_2">
	<g id="Favorite">
	</g>
	<g>
		<path class="st1" d="M493.4,129.3v333.1c0,5,0,9,0,9c0,0-1.3,3.9-2.8,8.6l-8.1,12.5c-4.1,2.8-7.5,5-7.5,5c0,0-4.1,0-9,0H177.1
			c-4.9,0-6.5-3.2-3.4-7.1l8.7-11.1c3.1-3.9,5.6-11.1,5.6-16.1V129.3c0-4.9,4.1-9,9-9h287.4C489.4,120.3,493.4,124.3,493.4,129.3z"
			/>
		<g>
			<path class="st2" d="M248.4,218.6v-11h6.2v-43.2h-6.2v-11h19.4l17,40.7v-29.7h-6v-11h20.7v11H293v54.7h-10.3l-19.9-48.4v36.9h5.8
				v11L248.4,218.6L248.4,218.6z"/>
			<path class="st2" d="M302.7,218.6v-11h5.5v-43.2h-5.5v-11h40.7v20.7h-8.8v-9.7h-14.3v15.1h11.6v11h-11.6v17.1h14.3v-9.8h8.8v20.8
				L302.7,218.6L302.7,218.6z"/>
			<path class="st2" d="M363.8,219l-13.2-54.6h-4.9v-11h20.8v11h-4.8l7.5,31.3l7-31.3h-4.2v-11h16.6v11h-4.3l7.6,31.3l7.3-31.3h-4.6
				v-11h18.5v11h-5L395.5,219h-8.6l-7.3-29.8l-6.9,29.8H363.8z"/>
			<path class="st2" d="M416.4,218.6v-22.2h7.8c0.1,4.1,0.8,7.1,2.3,9s3,2.9,4.9,2.9c1.4,0,2.6-0.7,3.6-2.1s1.5-3,1.5-4.9
				c0-2-0.5-3.7-1.4-5c-1-1.4-2.7-2.9-5.2-4.6c-5.3-3.6-9-6.8-10.9-9.6c-1.9-2.8-2.9-6.5-2.9-11.3c0-5.7,1.3-10.1,3.8-13.2
				s5.4-4.7,8.6-4.7c3.7,0,6.5,2,8.5,6.1v-5.4h7.8v19.8h-7.8c-0.2-3.1-1-5.4-2.2-7.1c-1.3-1.7-2.7-2.5-4.4-2.5
				c-1.3,0-2.4,0.5-3.3,1.5c-0.9,1-1.3,2.2-1.3,3.8c0,1.3,0.4,2.6,1.1,3.8c0.7,1.2,2.9,2.9,6.4,5.1c3.4,2.1,6,4.1,7.9,5.8
				c1.8,1.7,3.3,4,4.3,6.8c1.1,2.8,1.6,6,1.6,9.6c0,6.4-1.3,11.3-4,14.6c-2.7,3.3-5.8,4.9-9.4,4.9c-4.1,0-7.2-2.1-9.4-6.4v5.6
				L416.4,218.6L416.4,218.6L416.4,218.6z"/>
		</g>
		<rect x="217.8" y="251.6" class="st3" width="108.2" height="123.6"/>
		<line class="st4" x1="467.7" y1="255.5" x2="342" y2="255.5"/>
		<line class="st4" x1="467.7" y1="269.6" x2="342" y2="269.6"/>
		<line class="st4" x1="467.7" y1="283.8" x2="342" y2="283.8"/>
		<line class="st4" x1="467.7" y1="298" x2="342" y2="298"/>
		<line class="st4" x1="467.7" y1="312.2" x2="342" y2="312.2"/>
		<line class="st4" x1="467.7" y1="326.3" x2="342" y2="326.3"/>
		<line class="st4" x1="467.7" y1="340.5" x2="342" y2="340.5"/>
		<line class="st4" x1="467.7" y1="354.7" x2="342" y2="354.7"/>
		<line class="st4" x1="467.7" y1="368.9" x2="342" y2="368.9"/>
		<line class="st4" x1="217.8" y1="399.1" x2="466.7" y2="399.1"/>
		<line class="st4" x1="217.8" y1="413.2" x2="466.7" y2="413.2"/>
		<line class="st4" x1="217.8" y1="427.4" x2="466.7" y2="427.4"/>
		<line class="st4" x1="217.8" y1="441.6" x2="466.7" y2="441.6"/>
		<line class="st4" x1="217.8" y1="455.8" x2="466.7" y2="455.8"/>
		<line class="st4" x1="217.8" y1="469.9" x2="466.7" y2="469.9"/>
		<g>
			<path class="st5" d="M493.4,455.8v6.6c0,5,0,9,0,9c0,0-1.3,3.9-2.8,8.6l-8.1,12.5c-4.1,2.8-7.5,5-7.5,5c0,0-4.1,0-9,0H177.1
				c-4.9,0-6.5-3.2-3.4-7.1l8.7-11.1c3.1-3.9,5.6-11.1,5.6-16.1v-7.4L493.4,455.8L493.4,455.8z"/>
		</g>
		<g>
			<path class="st6" d="M158.9,494.8c-5.7,3.2,1-1.3,2.4-2.6c2.2-2,4.4-4,6.6-5.9c1.3-1.1,2.6-2.1,4-3.1c0.3-4.7,0.6-9.4,1-14.1
				c0.2-3,0.5-5.9,0.7-8.9c0-0.5,0.1-1.9,0.1-3.2H154V227.6h-39.2v243.3c0,14.6,8.8,26.6,19.6,26.6H155
				C156.2,496.5,157.5,495.6,158.9,494.8z"/>
			<path class="st7" d="M158.9,494.8c-5.7,3.2,1-1.3,2.4-2.6c2.2-2,4.4-4,6.6-5.9c1.3-1.1,2.6-2.1,4-3.1c0.3-4.7,0.6-9.4,1-14.1
				c0.2-3,0.5-5.9,0.7-8.9c0-0.5,0.1-1.9,0.1-3.2H154V227.6h-39.2v243.3c0,14.6,8.8,26.6,19.6,26.6H155
				C156.2,496.5,157.5,495.6,158.9,494.8z"/>
			<path class="st7" d="M158.9,494.8c-5.7,3.2,1-1.3,2.4-2.6c2.2-2,4.4-4,6.6-5.9c1.3-1.1,2.6-2.1,4-3.1c0.3-4.7,0.6-9.4,1-14.1
				c0.2-3,0.5-5.9,0.7-8.9c0-0.5,0.1-1.9,0.1-3.2H154V227.6h-39.2v243.3c0,14.6,8.8,26.6,19.6,26.6H155
				C156.2,496.5,157.5,495.6,158.9,494.8z"/>
		</g>
		<g>
			<path class="st8" d="M176.7,457v13.9c0,14.6-8.8,26.6-19.6,26.6c-10.8,0-19.6-12-19.6-26.6V227.6H154V457H176.7z"/>
		</g>
		<g>
			<path class="st6" d="M188,470.9c0,14.6-8.8,26.6-19.6,26.6s-19.6-12-19.6-26.6V179.4H188L188,470.9L188,470.9z"/>
			<path class="st7" d="M188,470.9c0,14.6-8.8,26.6-19.6,26.6s-19.6-12-19.6-26.6V179.4H188L188,470.9L188,470.9z"/>
		</g>
		<g>
			<path class="st8" d="M188,179.4v291.5c0,14.6-8.8,26.6-19.6,26.6c-2,0-3.9-0.4-5.7-1.1c8-3.3,13.9-13.5,13.9-25.5V179.4H188z"/>
		</g>
	</g>
</g>
</svg>
